# xmcd
#
# Track frame offsets:
#	182
#	31270
#	53570
#	80652
#	101570
#	122520
#
# Disc length: 1892 seconds
#
# Revision: 2
# Processed by: cddbd v1.5.2PL0 Copyright (c) Steve Scherf et al.
# Submitted via: EZCDAudioConverter 1.3.4.1
#
DISCID=40076206
DTITLE=Mick Jagger - Sweet Thing
DYEAR=1993
DGENRE=
TTITLE0=Sweet Thing [Mick's Extended Version]
TTITLE1=Sweet Thing [Mick's Dub]
TTITLE2=Sweet Thing [Extended Remix]
TTITLE3=Sweet Thing [Stripped Down Version]
TTITLE4=Sweet Thing [Stripped Down Instrumental]
TTITLE5=Sweet Thing
EXTD=
EXTT0=
EXTT1=
EXTT2=
EXTT3=
EXTT4=
EXTT5=
PLAYORDER=
